<svg xmlns="http://www.w3.org/2000/svg" viewBox="-10.6 26.499999999999986 434 127" role="img" aria-label="Aeolia"><path d="M14.28 126.28L60.62 42L136.50 42L136.50 74.48L129.36 74.48Q128.52 65.24 127.40 60.41Q126.28 55.58 123.06 52.71Q119.84 49.84 115.57 49.14Q111.30 48.44 102.76 48.44L83.86 48.44L83.86 85.82L96.32 85.82Q101.92 85.82 104.44 83.65Q106.96 81.48 106.96 76.16L106.96 71.40L113.54 71.40L113.54 106.54L106.96 106.54L106.96 101.78Q106.96 96.46 104.44 94.29Q101.92 92.12 96.32 92.12L83.86 92.12L83.86 127.12Q83.86 130.76 86.66 132.16Q89.46 133.56 98.42 133.56L102.76 133.56Q118.44 133.56 123.13 128.73Q127.82 123.90 129.36 106.26L136.50 106.26L136.50 140L52.64 140L52.64 133.56L60.20 133.56Q64.96 133.56 64.96 127.68L64.96 108.22L33.04 108.22L22.82 126.98Q19.32 133.56 25.20 133.56L32.62 133.56L32.62 140L1.40 140L1.40 133.56L6.58 133.56Q8.96 133.56 10.43 132.09Q11.90 130.62 14.28 126.28M64.96 48.44L36.26 102.06L64.96 102.06L64.96 48.44M226.66 104.72Q226.66 121.66 216.23 131.53Q205.80 141.40 189.98 141.40Q174.02 141.40 163.66 131.53Q153.30 121.66 153.30 104.72Q153.30 87.64 163.66 77.77Q174.02 67.90 189.98 67.90Q205.80 67.90 216.23 77.77Q226.66 87.64 226.66 104.72M172.62 104.44Q172.62 135.24 189.98 135.24Q207.34 135.24 207.34 104.44Q207.34 74.06 189.98 74.06Q172.62 74.06 172.62 104.44M236.46 39.20L265.58 39.20L265.58 129.36Q265.58 133.84 269.36 133.84L276.50 133.84L276.50 140L236.46 140L236.46 133.84L243.46 133.84Q247.24 133.84 247.24 129.36L247.24 49.84Q247.24 45.36 243.46 45.36L236.46 45.36L236.46 39.20M310.73 56.14Q307.72 58.94 302.82 58.94Q297.92 58.94 294.91 56.14Q291.90 53.34 291.90 48.72Q291.90 43.96 294.91 41.23Q297.92 38.50 302.82 38.50Q307.72 38.50 310.73 41.23Q313.74 43.96 313.74 48.72Q313.74 53.34 310.73 56.14M283.64 69.30L312.76 69.30L312.76 129.36Q312.76 133.84 316.54 133.84L323.68 133.84L323.68 140L283.64 140L283.64 133.84L290.64 133.84Q294.42 133.84 294.42 129.36L294.42 79.94Q294.42 75.46 290.64 75.46L283.64 75.46L283.64 69.30M411.04 121.38L411.04 126.28Q411.04 139.02 400.26 140.84Q396.34 141.40 392.14 140.42Q382.06 139.02 379.54 130.20L378.84 130.20Q371.14 139.72 357.98 140.98Q355.04 141.40 350.84 141.12Q342.44 140.56 337.54 135.94Q332.64 131.32 332.64 124.32Q332.64 117.74 NaN 113.40Q339.36 109.06 347.34 106.26Q350.42 105.14 351.96 104.72Q364.56 100.66 369.67 98.49Q374.78 96.32 376.39 94.64QNaN 92.96 NaN 89.88LNaN 88.62Q377.72 82.46 373.45 78.54Q369.18 74.62 360.64 74.62Q359.66 74.62 359.10 74.76Q351.12 75.32 346.22 79.94Q347.76 79.94 348.88 80.64Q353.22 82.04 353.22 86.94Q353.22 90.86 350.63 92.96Q348.04 95.06 344.26 95.06Q342.16 95.06 340.48 94.22Q338.10 93.52 336.56 91.35Q335.02 89.18 335.02 86.10Q335.02 85.54 335.16 85.26Q335.58 78.40 343.84 73.15Q352.10 67.90 365.96 67.90Q380.80 67.90 388.29 73.78Q395.78 79.66 396.20 92.54Q396.34 93.52 396.34 95.34L396.34 127.12Q396.34 133.70 400.68 133.70Q401.38 133.70 401.66 133.56Q404.88 132.86 405.30 127.96Q405.30 127.54 405.37 126.70Q405.44 125.86 405.44 125.30L405.44 121.38L411.04 121.38M362.32 132.58Q367.78 132.58 371.91 129.64Q376.04 126.70 377.30 121.80QNaN 119 NaN 116.62LNaN 101.36Q374.78 103.04 370.23 104.79Q365.68 106.54 362.67 107.73Q359.66 108.92 356.72 110.67Q353.78 112.42 352.31 115.01Q350.84 117.60 350.84 121.10Q350.84 126.70 353.99 129.64Q357.14 132.58 362.32 132.58" fill="currentColor"/></svg>
