<svg xmlns="http://www.w3.org/2000/svg" viewBox="-10.6 26.499999999999986 475 127" role="img" aria-label="Aeolia"><path d="M14.14 126.28L44.38 42L62.86 42L92.96 125.58Q94.50 130.06 95.83 131.81Q97.16 133.56 99.96 133.56L105.84 133.56L105.84 140L61.74 140L61.74 133.56L69.02 133.56Q75.04 133.56 72.80 126.70L66.22 107.94L66.22 108.36L29.40 108.36L22.82 126.98Q21.70 131.04 22.54 132.30Q23.38 133.56 26.04 133.56L33.32 133.56L33.32 140L1.40 140L1.40 133.56L7.42 133.56Q9.80 133.56 11.20 132.02Q12.60 130.48 14.14 126.28M47.88 54.18L31.36 101.92L64.40 101.92L47.88 54.18M174.02 116.62L181.30 116.62Q178.92 128.52 170.80 134.96Q162.68 141.40 149.38 141.40Q133.42 141.40 122.99 131.53Q112.56 121.66 112.56 104.72Q112.56 87.64 122.78 77.77Q133 67.90 148.68 67.90Q163.38 67.90 172.83 77.42Q182.28 86.94 182.28 104.16L131.60 104.16Q131.60 107.10 131.74 108.36Q132.86 134.40 152.60 134.40Q153.58 134.40 155.54 134.12Q170.38 133.14 174.02 116.62M148.82 74.06Q133.28 74.06 131.74 98L165.34 98Q164.78 74.06 148.82 74.06M267.12 104.72Q267.12 121.66 256.69 131.53Q246.26 141.40 230.44 141.40Q214.48 141.40 204.12 131.53Q193.76 121.66 193.76 104.72Q193.76 87.64 204.12 77.77Q214.48 67.90 230.44 67.90Q246.26 67.90 256.69 77.77Q267.12 87.64 267.12 104.72M213.08 104.44Q213.08 135.24 230.44 135.24Q247.80 135.24 247.80 104.44Q247.80 74.06 230.44 74.06Q213.08 74.06 213.08 104.44M276.92 39.20L306.04 39.20L306.04 129.36Q306.04 133.84 309.82 133.84L316.96 133.84L316.96 140L276.92 140L276.92 133.84L283.92 133.84Q287.70 133.84 287.70 129.36L287.70 49.84Q287.70 45.36 283.92 45.36L276.92 45.36L276.92 39.20M351.19 56.14Q348.18 58.94 343.28 58.94Q338.38 58.94 335.37 56.14Q332.36 53.34 332.36 48.72Q332.36 43.96 335.37 41.23Q338.38 38.50 343.28 38.50Q348.18 38.50 351.19 41.23Q354.20 43.96 354.20 48.72Q354.20 53.34 351.19 56.14M324.10 69.30L353.22 69.30L353.22 129.36Q353.22 133.84 357 133.84L364.14 133.84L364.14 140L324.10 140L324.10 133.84L331.10 133.84Q334.88 133.84 334.88 129.36L334.88 79.94Q334.88 75.46 331.10 75.46L324.10 75.46L324.10 69.30M451.50 121.38L451.50 126.28Q451.50 139.02 440.72 140.84Q436.80 141.40 432.60 140.42Q422.52 139.02 NaN 130.20L419.30 130.20Q411.60 139.72 398.44 140.98Q395.50 141.40 391.30 141.12Q382.90 140.56 378 135.94Q373.10 131.32 373.10 124.32Q373.10 117.74 376.46 113.40Q379.82 109.06 387.80 106.26Q390.88 105.14 392.42 104.72Q405.02 100.66 410.13 98.49Q415.24 96.32 416.85 94.64Q418.46 92.96 418.46 89.88L418.46 88.62Q418.18 82.46 413.91 78.54Q409.64 74.62 401.10 74.62Q400.12 74.62 399.56 74.76Q391.58 75.32 386.68 79.94Q388.22 79.94 389.34 80.64Q393.68 82.04 393.68 86.94Q393.68 90.86 391.09 92.96Q388.50 95.06 384.72 95.06Q382.62 95.06 380.94 94.22Q378.56 93.52 377.02 91.35Q375.48 89.18 375.48 86.10Q375.48 85.54 375.62 85.26Q376.04 78.40 384.30 73.15Q392.56 67.90 406.42 67.90Q421.26 67.90 428.75 73.78Q436.24 79.66 436.66 92.54Q436.80 93.52 436.80 95.34L436.80 127.12Q436.80 133.70 441.14 133.70Q441.84 133.70 442.12 133.56Q445.34 132.86 445.76 127.96Q445.76 127.54 445.83 126.70Q445.90 125.86 445.90 125.30L445.90 121.38L451.50 121.38M402.78 132.58Q408.24 132.58 412.37 129.64Q416.50 126.70 417.76 121.80Q418.46 119 418.46 116.62L418.46 101.36Q415.24 103.04 410.69 104.79Q406.14 106.54 403.13 107.73Q400.12 108.92 397.18 110.67Q394.24 112.42 392.77 115.01Q391.30 117.60 391.30 121.10Q391.30 126.70 394.45 129.64Q397.60 132.58 402.78 132.58" fill="currentColor"/></svg>
