<svg xmlns="http://www.w3.org/2000/svg" viewBox="0 0 512 512"><rect width="512" height="512" rx="114" fill="#1a1712"/><g transform="translate(78.3121243523316 382.2756476683938) scale(1.2026252158894646)"><path d="M30.60-29.40L129.90-210L292.50-210L292.50-140.40L277.20-140.40Q275.40-160.20 273-170.55Q270.60-180.90 263.70-187.05Q256.80-193.20 247.65-194.70Q238.50-196.20 220.20-196.20L179.70-196.20L179.70-116.10L206.40-116.10Q218.40-116.10 223.80-120.75Q229.20-125.40 229.20-136.80L229.20-147L243.30-147L243.30-71.70L229.20-71.70L229.20-81.90Q229.20-93.30 223.80-97.95Q218.40-102.60 206.40-102.60L179.70-102.60L179.70-27.60Q179.70-19.80 185.70-16.80Q191.70-13.80 210.90-13.80L220.20-13.80Q253.80-13.80 263.85-24.15Q273.90-34.50 277.20-72.30L292.50-72.30L292.50 0L112.80 0L112.80-13.80L129-13.80Q139.20-13.80 139.20-26.40L139.20-68.10L70.80-68.10L48.90-27.90Q41.40-13.80 54-13.80L69.90-13.80L69.90 0L3 0L3-13.80L14.10-13.80Q19.20-13.80 22.35-16.95Q25.50-20.10 30.60-29.40M139.20-196.20L77.70-81.30L139.20-81.30" fill="#a88a63"/></g></svg>